<svg data-name="Layer 1" xmlns="http://www.w3.org/2000/svg" viewBox="0 0 30 30"><path class="cls-1" d="M14.35547,2.63672a1.41461,1.41461,0,0,1,1.99219,0L27.71484,14.00391a1.4146,1.4146,0,0,1,0,1.99218L16.34766,27.36328a1.41461,1.41461,0,0,1-1.99219,0l-1.28906-1.28906a1.1909,1.1909,0,0,1-.43946-.9961,1.4655,1.4655,0,0,1,.43946-.99609l7.03125-6.73828H3.28125A1.40042,1.40042,0,0,1,1.875,15.9375v-1.875a1.40042,1.40042,0,0,1,1.40625-1.40625H20.09766L13.06641,5.918a1.4655,1.4655,0,0,1-.43946-.99609,1.1909,1.1909,0,0,1,.43946-.9961Z"/></svg>