<svg data-name="Layer 1" xmlns="http://www.w3.org/2000/svg" viewBox="0 0 30 30"><path class="cls-1" d="M8.73047,7.96875A1.40042,1.40042,0,0,1,7.32422,9.375h-5.918a1.3561,1.3561,0,0,1-.99609-.41016A1.3561,1.3561,0,0,1,0,7.96875V3.28125a1.3561,1.3561,0,0,1,.41016-.99609A1.3561,1.3561,0,0,1,1.40625,1.875h5.918A1.40042,1.40042,0,0,1,8.73047,3.28125ZM1.40625,11.25a1.3561,1.3561,0,0,0-.99609.41016A1.3561,1.3561,0,0,0,0,12.65625v4.6875a1.3561,1.3561,0,0,0,.41016.99609,1.3561,1.3561,0,0,0,.99609.41016h5.918a1.40042,1.40042,0,0,0,1.40625-1.40625v-4.6875A1.40042,1.40042,0,0,0,7.32422,11.25ZM0,26.71875a1.3561,1.3561,0,0,0,.41016.99609,1.3561,1.3561,0,0,0,.99609.41016h5.918a1.40042,1.40042,0,0,0,1.40625-1.40625v-4.6875A1.40042,1.40042,0,0,0,7.32422,20.625h-5.918a1.3561,1.3561,0,0,0-.99609.41016A1.3561,1.3561,0,0,0,0,22.03125ZM19.39453,3.28125A1.4004,1.4004,0,0,0,17.98828,1.875H12.01172a1.4004,1.4004,0,0,0-1.40625,1.40625v4.6875A1.4004,1.4004,0,0,0,12.01172,9.375h5.97656a1.4004,1.4004,0,0,0,1.40625-1.40625Zm0,9.375A1.4004,1.4004,0,0,0,17.98828,11.25H12.01172a1.4004,1.4004,0,0,0-1.40625,1.40625v4.6875A1.4004,1.4004,0,0,0,12.01172,18.75h5.97656a1.4004,1.4004,0,0,0,1.40625-1.40625Zm-8.78906,14.0625A1.4004,1.4004,0,0,0,12.01172,28.125h5.97656a1.4004,1.4004,0,0,0,1.40625-1.40625v-4.6875A1.4004,1.4004,0,0,0,17.98828,20.625H12.01172a1.4004,1.4004,0,0,0-1.40625,1.40625Zm10.66406-18.75A1.40042,1.40042,0,0,0,22.67578,9.375h5.918A1.40042,1.40042,0,0,0,30,7.96875V3.28125A1.40042,1.40042,0,0,0,28.59375,1.875h-5.918a1.40042,1.40042,0,0,0-1.40625,1.40625ZM28.59375,18.75A1.40042,1.40042,0,0,0,30,17.34375v-4.6875A1.40042,1.40042,0,0,0,28.59375,11.25h-5.918a1.40042,1.40042,0,0,0-1.40625,1.40625v4.6875A1.40042,1.40042,0,0,0,22.67578,18.75Zm0,9.375A1.40042,1.40042,0,0,0,30,26.71875v-4.6875A1.40042,1.40042,0,0,0,28.59375,20.625h-5.918a1.40042,1.40042,0,0,0-1.40625,1.40625v4.6875A1.40042,1.40042,0,0,0,22.67578,28.125Z"/></svg>