<svg xmlns="http://www.w3.org/2000/svg" viewBox="0 0 30 30"><path class="cls-1" d="M29.59,25.957a1.4148,1.4148,0,0,1,0,1.9922L27.95,29.59a1.4145,1.4145,0,0,1-1.9922,0l-5.8594-5.8593a1.3565,1.3565,0,0,1-.41-.9961v-.9375a11.8086,11.8086,0,0,1-7.5,2.5781,11.8393,11.8393,0,0,1-6.1235-1.6406A12.313,12.313,0,0,1,1.64,18.3105,11.8361,11.8361,0,0,1,0,12.1875,11.8361,11.8361,0,0,1,1.64,6.0645,12.313,12.313,0,0,1,6.0642,1.6406,11.8393,11.8393,0,0,1,12.1877,0a11.8376,11.8376,0,0,1,6.1231,1.6406,12.313,12.313,0,0,1,4.4238,4.4239,11.8361,11.8361,0,0,1,1.6406,6.123,11.808,11.808,0,0,1-2.5781,7.5h.9375a1.3559,1.3559,0,0,1,.9961.41Zm-17.4024-6.27a7.4362,7.4362,0,0,0,3.7793-.9961,7.2971,7.2971,0,0,0,2.7247-2.7246,7.4371,7.4371,0,0,0,.996-3.7793,7.4371,7.4371,0,0,0-.996-3.7793A7.2971,7.2971,0,0,0,15.967,5.6836a7.4362,7.4362,0,0,0-3.7793-.9961,7.4367,7.4367,0,0,0-3.7793.9961A7.2952,7.2952,0,0,0,5.6833,8.4082a7.4371,7.4371,0,0,0-.996,3.7793,7.4371,7.4371,0,0,0,.996,3.7793,7.2952,7.2952,0,0,0,2.7251,2.7246A7.4367,7.4367,0,0,0,12.1877,19.6875Z"/></svg>
